<?xml version="1.0" encoding="UTF-8" standalone="no"?><!DOCTYPE svg PUBLIC "-//W3C//DTD SVG 1.1//EN" "http://www.w3.org/Graphics/SVG/1.1/DTD/svg11.dtd"><svg width="100%" height="100%" viewBox="0 0 70 70" version="1.1" xmlns="http://www.w3.org/2000/svg" xmlns:xlink="http://www.w3.org/1999/xlink" xml:space="preserve" xmlns:serif="http://www.serif.com/" style="fill-rule:evenodd;clip-rule:evenodd;stroke-linejoin:round;stroke-miterlimit:1.41421;"><path d="M35.897,2.012c-18.083,0 -27.699,11.587 -27.699,24.222c0,5.86 3.274,13.168 8.515,15.485c0.796,0.359 1.229,0.206 1.406,-0.532c0.157,-0.561 0.846,-3.262 1.18,-4.536c0.103,-0.408 0.049,-0.763 -0.281,-1.146c-1.74,-2.013 -3.121,-5.679 -3.121,-9.118c0,-8.812 7.006,-17.369 18.928,-17.369c10.309,0 17.522,6.697 17.522,16.276c0,10.825 -5.728,18.314 -13.172,18.314c-4.119,0 -7.187,-3.233 -6.214,-7.233c1.175,-4.763 3.48,-9.885 3.48,-13.32c0,-3.08 -1.74,-5.629 -5.295,-5.629c-4.193,0 -7.596,4.153 -7.596,9.728c0,3.542 1.254,5.934 1.254,5.934c0,0 -4.148,16.759 -4.92,19.889c-1.303,5.299 0.178,13.88 0.306,14.619c0.078,0.408 0.536,0.536 0.791,0.202c0.409,-0.537 5.423,-7.691 6.829,-12.862c0.512,-1.885 2.611,-9.526 2.611,-9.526c1.381,2.495 5.369,4.585 9.616,4.585c12.635,0 21.765,-11.105 21.765,-24.886c-0.045,-13.213 -11.352,-23.097 -25.905,-23.097Z" style="fill:#fff;fill-rule:nonzero;"/></svg>