<?xml version="1.0" encoding="UTF-8" standalone="no"?><!DOCTYPE svg PUBLIC "-//W3C//DTD SVG 1.1//EN" "http://www.w3.org/Graphics/SVG/1.1/DTD/svg11.dtd"><svg width="100%" height="100%" viewBox="0 0 70 70" version="1.1" xmlns="http://www.w3.org/2000/svg" xmlns:xlink="http://www.w3.org/1999/xlink" xml:space="preserve" xmlns:serif="http://www.serif.com/" style="fill-rule:evenodd;clip-rule:evenodd;stroke-linejoin:round;stroke-miterlimit:1.41421;"><path d="M21.075,7.536c-4.768,0.234 -5.588,0.547 -6.929,2.343c-1.714,2.343 -1.416,4.609 0.894,6.639c1.267,1.172 3.055,1.406 12.294,1.406c8.792,0 10.729,0.235 10.431,1.016c-0.223,0.625 -5.886,8.435 -12.666,17.418c-6.706,8.982 -12.518,17.106 -12.816,18.121c-0.67,2.499 0.82,6.014 3.055,7.108c1.192,0.547 8.047,0.859 19.671,0.859l17.807,0l1.49,-2.031c2.012,-2.734 1.938,-4.608 -0.298,-6.951c-1.788,-1.875 -2.086,-1.953 -13.784,-1.953c-6.557,0 -11.921,-0.156 -11.921,-0.391c0,-0.234 4.47,-6.248 9.984,-13.512c16.392,-21.558 17.733,-24.058 15.051,-27.963c-0.894,-1.172 -2.385,-1.562 -8.047,-2.031c-7.153,-0.469 -14.827,-0.547 -24.216,-0.078Z" style="fill:#fff;fill-rule:nonzero;"/></svg>