<?xml version="1.0" encoding="UTF-8" standalone="no"?><!DOCTYPE svg PUBLIC "-//W3C//DTD SVG 1.1//EN" "http://www.w3.org/Graphics/SVG/1.1/DTD/svg11.dtd"><svg width="100%" height="100%" viewBox="0 0 70 70" version="1.1" xmlns="http://www.w3.org/2000/svg" xmlns:xlink="http://www.w3.org/1999/xlink" xml:space="preserve" xmlns:serif="http://www.serif.com/" style="fill-rule:evenodd;clip-rule:evenodd;stroke-linejoin:round;stroke-miterlimit:1.41421;"><path d="M22.675,61.998c25.073,0 38.784,-20.772 38.784,-38.784c0,-0.59 -0.012,-1.178 -0.039,-1.762c2.662,-1.924 4.975,-4.326 6.8,-7.059c-2.442,1.086 -5.071,1.816 -7.828,2.147c2.814,-1.689 4.975,-4.358 5.994,-7.54c-2.634,1.561 -5.551,2.695 -8.656,3.308c-2.487,-2.649 -6.029,-4.306 -9.95,-4.306c-7.527,0 -13.632,6.104 -13.632,13.629c0,1.07 0.12,2.11 0.353,3.108c-11.329,-0.57 -21.375,-5.994 -28.098,-14.242c-1.17,2.014 -1.845,4.355 -1.845,6.852c0,4.729 2.406,8.904 6.066,11.346c-2.237,-0.069 -4.337,-0.683 -6.174,-1.704c-0.002,0.057 -0.002,0.113 -0.002,0.174c0,6.601 4.699,12.113 10.937,13.362c-1.146,0.312 -2.352,0.48 -3.595,0.48c-0.877,0 -1.732,-0.086 -2.562,-0.246c1.735,5.416 6.768,9.357 12.734,9.468c-4.666,3.656 -10.543,5.835 -16.93,5.835c-1.099,0 -2.185,-0.063 -3.252,-0.189c6.033,3.867 13.196,6.123 20.895,6.123" style="fill:#fff;fill-rule:nonzero;"/></svg>